<svg width="17" height="21" viewBox="0 0 17 21" fill="none" xmlns="http://www.w3.org/2000/svg">
<path d="M11.7459 3.27122H5.0597C4.93442 3.27122 4.8163 3.21306 4.74025 3.11373C4.6642 3.01441 4.63824 2.88466 4.67135 2.76386L5.13756 1.03059C5.28521 0.482966 5.78452 0.0999756 6.35095 0.0999756H10.4537C11.021 0.0999756 11.5203 0.482073 11.6671 1.03059L12.1333 2.76386C12.1655 2.88467 12.1404 3.01443 12.0644 3.11373C11.9883 3.21303 11.8702 3.27122 11.7449 3.27122H11.7459ZM5.58496 2.46588H11.2207L10.8905 1.23997C10.8377 1.04311 10.6578 0.905312 10.4547 0.905312H6.35198C6.14796 0.905312 5.96899 1.04311 5.91621 1.23997L5.58602 2.46588H5.58496Z" fill="#5F6364" stroke="#5F6364" stroke-width="0.2"/>
<path d="M15.071 5.92253H1.73445C0.833359 5.92253 0.0996094 5.18879 0.0996094 4.2877V4.14631C0.0996094 3.24522 0.833359 2.51147 1.73445 2.51147H15.071C15.972 2.51147 16.7058 3.24522 16.7058 4.14631V4.2877C16.7058 5.18879 15.972 5.92253 15.071 5.92253ZM1.73445 3.31681C1.27719 3.31681 0.904945 3.68905 0.904945 4.14631V4.28769C0.904945 4.74495 1.27719 5.1172 1.73445 5.1172H15.071C15.5282 5.1172 15.9005 4.74495 15.9005 4.28769V4.14631C15.9005 3.68905 15.5282 3.31681 15.071 3.31681H1.73445Z" fill="#5F6364" stroke="#5F6364" stroke-width="0.2"/>
<path d="M11.9108 20.0999H4.89633C3.69458 20.0999 2.69327 19.2704 2.61632 18.2118L1.69734 5.54926C1.68929 5.43741 1.72776 5.32734 1.80382 5.24592C1.87988 5.1636 1.98637 5.11707 2.09823 5.11707H14.7081C14.82 5.11707 14.9265 5.1636 15.0025 5.24592C15.0786 5.32825 15.1171 5.43741 15.109 5.54926L14.19 18.2118C14.1131 19.2704 13.1118 20.0999 11.91 20.0999H11.9108ZM2.53136 5.92224L3.41902 18.1528C3.46555 18.7926 4.11431 19.2946 4.89637 19.2946H11.9109C12.693 19.2946 13.3417 18.7935 13.3882 18.1528L14.2759 5.92224H2.53136Z" fill="#5F6364" stroke="#5F6364" stroke-width="0.2"/>
<path d="M6.1742 18.1895C5.46281 18.1895 4.88477 17.6105 4.88477 16.9V8.34913C4.88477 7.63774 5.46371 7.05969 6.1742 7.05969C6.8856 7.05969 7.46364 7.63863 7.46364 8.34913V16.9C7.46364 17.6114 6.8856 18.1895 6.1742 18.1895ZM6.1742 7.86507C5.90754 7.86507 5.6901 8.08252 5.6901 8.34918V16.9001C5.6901 17.1668 5.90754 17.3842 6.1742 17.3842C6.44087 17.3842 6.65831 17.1667 6.65831 16.9001V8.34918C6.65831 8.08251 6.44087 7.86507 6.1742 7.86507Z" fill="#5F6364" stroke="#5F6364" stroke-width="0.2"/>
<path d="M10.6322 18.1895C9.92082 18.1895 9.34277 17.6105 9.34277 16.9V8.34913C9.34277 7.63774 9.92082 7.05969 10.6322 7.05969C11.3436 7.05969 11.9217 7.63863 11.9217 8.34913V16.9C11.9217 17.6114 11.3427 18.1895 10.6322 18.1895ZM10.6322 7.86507C10.3655 7.86507 10.1481 8.08252 10.1481 8.34918V16.9001C10.1481 17.1668 10.3656 17.3842 10.6322 17.3842C10.8989 17.3842 11.1163 17.1667 11.1163 16.9001V8.34918C11.1163 8.08251 10.8989 7.86507 10.6322 7.86507Z" fill="#5F6364" stroke="#5F6364" stroke-width="0.2"/>
</svg>
