<svg width="12" height="15" viewBox="0 0 12 15" fill="none" xmlns="http://www.w3.org/2000/svg">
<path d="M10.0928 1.34375H7.20959L7.09639 0.777185C7.03514 0.47148 6.76498 0.25 6.45326 0.25H4.98325C4.67153 0.25 4.40082 0.472026 4.34012 0.777185L4.22692 1.34375H1.34375C0.740547 1.34375 0.25 1.8343 0.25 2.4375V3.09376C0.25 3.21462 0.347891 3.31251 0.46875 3.31251H0.919383L1.51384 13.2219C1.54884 13.7983 2.02791 14.25 2.60541 14.25H8.8322C9.4097 14.25 9.88931 13.7983 9.92377 13.2219L10.5182 3.31251H10.9689C11.0897 3.31251 11.1876 3.21462 11.1876 3.09376V2.4375C11.1876 1.8343 10.6971 1.34375 10.0939 1.34375H10.0928ZM4.76841 0.863593C4.78919 0.761875 4.87888 0.687501 4.98278 0.687501H6.45278C6.55669 0.687501 6.64692 0.761329 6.66715 0.863593L6.7634 1.34375H4.67207L4.76841 0.863593ZM9.48684 13.1957C9.46606 13.5413 9.1784 13.8125 8.83168 13.8125H2.60489C2.25816 13.8125 1.97052 13.5413 1.94973 13.1957L1.35691 3.31248H10.0796L9.48684 13.1957ZM10.7496 2.87498H0.68649V2.43748C0.68649 2.07545 0.980715 1.78123 1.34274 1.78123H10.0928C10.4548 1.78123 10.749 2.07545 10.749 2.43748V2.87498H10.7496Z" fill="white" stroke="white" stroke-width="0.5"/>
<path fill-rule="evenodd" clip-rule="evenodd" d="M4.5087 7.0498C4.42939 7.12911 4.42939 7.25829 4.5087 7.33787L5.4212 8.25011L4.5087 9.16236C4.42939 9.24194 4.42939 9.37112 4.5087 9.45043C4.58828 9.53001 4.71745 9.53001 4.79703 9.45043L5.70925 8.53819L6.62148 9.45043C6.70106 9.53001 6.82996 9.53001 6.90954 9.45043C6.98912 9.37112 6.98912 9.24194 6.90954 9.16236L5.99732 8.25011L6.90954 7.33787C6.98912 7.25829 6.98912 7.12911 6.90954 7.0498C6.82996 6.97022 6.70106 6.97022 6.62148 7.0498L5.70925 7.96204L4.79703 7.0498C4.71745 6.97022 4.58828 6.97022 4.5087 7.0498Z" fill="white" stroke="white" stroke-width="0.5"/>
</svg>
