<svg width="20" height="20" viewBox="0 0 20 20" fill="none" xmlns="http://www.w3.org/2000/svg">
<path d="M16.5021 20H2.50031C1.12201 20 0 18.8781 0 17.4999V3.49905C0 2.12084 1.12201 0.998901 2.50031 0.998901H13.2016C13.4777 0.998901 13.7017 1.22287 13.7017 1.49893C13.7017 1.77499 13.4777 1.99896 13.2016 1.99896H2.50031C1.67311 1.99896 1.00012 2.67191 1.00012 3.49905V17.4999C1.00012 18.327 1.67311 19 2.50031 19H16.5021C17.3293 19 18.0022 18.327 18.0022 17.4999V6.79925C18.0022 6.52318 18.2262 6.29922 18.5023 6.29922C18.7784 6.29922 19.0024 6.52319 19.0024 6.79925V17.4999C19.0024 18.8781 17.8804 20 16.5021 20Z" fill="#5F6364"/>
<path d="M4.86682 12.4724L4.16985 14.5642C4.05004 14.9257 4.14172 15.3184 4.41155 15.5882C4.68137 15.858 5.0731 15.9507 5.43562 15.8299L7.52756 15.133C8.04013 14.9621 8.5131 14.6694 8.89544 14.2871L19.5634 3.61975C20.1479 3.03534 20.1479 2.08321 19.5634 1.4988L18.5029 0.438306C17.9184 -0.146102 16.9662 -0.146102 16.3818 0.438306L5.71379 11.1056C5.33145 11.4879 5.03872 11.9609 4.86785 12.4734L4.86682 12.4724ZM5.11789 14.8808L5.81486 12.789C5.91487 12.489 6.07635 12.2098 6.28054 11.9682L8.03076 13.7183C7.78906 13.9224 7.50987 14.0839 7.20983 14.1839L5.11789 14.8808ZM6.97959 11.2516L15.3193 2.91239L17.0872 4.6802L8.74752 13.0194L6.97959 11.2516ZM17.7945 1.14482L18.8551 2.20531C19.0499 2.40011 19.0499 2.71784 18.8551 2.91263L17.7945 3.97312L16.0266 2.20531L17.0872 1.14482C17.282 0.950012 17.5997 0.950012 17.7945 1.14482Z" fill="#5F6364"/>
</svg>
