<svg width="12" height="15" viewBox="0 0 12 15" fill="none" xmlns="http://www.w3.org/2000/svg">
<path d="M7.97624 0.25C7.97443 0.25 7.97323 0.250598 7.97142 0.250598H1.5187C0.819502 0.250598 0.25 0.815241 0.25 1.50848V12.9921C0.25 13.6854 0.819502 14.25 1.5187 14.25H9.97977C10.679 14.25 11.2485 13.6854 11.2485 12.9921L11.2479 3.52542C11.2563 3.46561 11.2394 3.40459 11.2008 3.35793C11.1954 3.35135 11.19 3.34537 11.1845 3.33939L8.13246 0.315202C8.09143 0.273332 8.03476 0.25 7.97624 0.25ZM1.51874 0.687841H7.75678V2.45596C7.75678 3.14919 8.32628 3.71445 9.02549 3.71445L10.807 3.71385V12.9922C10.807 13.4504 10.442 13.8123 9.97986 13.8123H1.51879C1.05667 13.8123 0.691679 13.4504 0.691679 12.9922V1.50857C0.691679 1.05039 1.05667 0.688514 1.51879 0.688514L1.51874 0.687841ZM8.19771 0.998268L10.4956 3.27598H9.02484C8.56272 3.27598 8.19773 2.9141 8.19773 2.45593L8.19771 0.998268ZM5.74951 5.00581C5.69099 5.00522 5.63428 5.02854 5.59266 5.06982C5.55103 5.11109 5.52811 5.16671 5.52811 5.22533V8.97211L3.93242 7.24227C3.84977 7.15375 3.71041 7.14776 3.62113 7.22911C3.53184 7.31106 3.52581 7.44923 3.60846 7.53775L5.58716 9.68392H5.58656C5.58716 9.68452 5.58776 9.68512 5.58837 9.68572C5.59741 9.69469 5.60707 9.70366 5.61793 9.71084C5.61913 9.71204 5.62034 9.71323 5.62155 9.71443C5.63301 9.72221 5.64507 9.72938 5.65775 9.73477C5.65895 9.73536 5.66016 9.73596 5.66076 9.73656H5.66137C5.67283 9.74134 5.68489 9.74493 5.69696 9.74792C5.69937 9.74852 5.70179 9.74912 5.7048 9.75032C5.71928 9.75331 5.73436 9.7551 5.75005 9.7551C5.76453 9.7551 5.7784 9.75391 5.79288 9.75091C5.80676 9.74792 5.82063 9.74374 5.8339 9.73835H5.83451C5.86045 9.72759 5.88458 9.71144 5.90509 9.6911C5.9075 9.68871 5.90992 9.68692 5.91293 9.68452L7.89117 7.53834C7.97382 7.44982 7.96779 7.31165 7.8785 7.22971C7.83567 7.19023 7.77836 7.1693 7.71924 7.17169C7.66072 7.17408 7.60522 7.1998 7.56541 7.24287L5.96972 8.97454V5.22608C5.96972 5.16806 5.94679 5.11243 5.90577 5.07116C5.86414 5.02989 5.80864 5.00656 5.75012 5.00656L5.74951 5.00581ZM3.84741 10.5751H3.84801C3.78949 10.5751 3.73279 10.5984 3.69176 10.6397C3.65074 10.6809 3.62721 10.7366 3.62782 10.7946C3.62782 10.9148 3.72676 11.0123 3.84802 11.0123H7.65052C7.70904 11.0129 7.76514 10.9896 7.80677 10.9489C7.84839 10.9082 7.87192 10.8526 7.87192 10.7946C7.87253 10.736 7.849 10.6803 7.80737 10.6391C7.76574 10.5978 7.70964 10.5745 7.65052 10.5751L3.84741 10.5751Z" fill="white" stroke="white" stroke-width="0.5"/>
</svg>
