<svg width="6" height="6" viewBox="0 0 6 6" fill="none" xmlns="http://www.w3.org/2000/svg">
<path fill-rule="evenodd" clip-rule="evenodd" d="M0.141628 0.142105C-0.0472094 0.330948 -0.0472094 0.638512 0.141628 0.827985L2.31423 3L0.141628 5.17201C-0.0472094 5.36149 -0.0472094 5.66905 0.141628 5.85789C0.331097 6.04737 0.638653 6.04737 0.828122 5.85789L3.00008 3.68588L5.17204 5.85789C5.3615 6.04737 5.66843 6.04737 5.8579 5.85789C6.04737 5.66905 6.04737 5.36149 5.8579 5.17201L3.68594 3L5.8579 0.827985C6.04737 0.638512 6.04737 0.330948 5.8579 0.142105C5.66843 -0.0473683 5.3615 -0.0473683 5.17204 0.142105L3.00008 2.31412L0.828122 0.142105C0.638653 -0.0473683 0.331097 -0.0473683 0.141628 0.142105Z" fill="white" fill-opacity="0.6"/>
</svg>
